# xmcd
#
# Track frame offsets:
#	150
#	22879
#	40201
#	53980
#	68549
#	79155
#	92625
#	106654
#	119895
#	138926
#	165101
#	181130
#	195188
#	218357
#	229878
#	244469
#
# Disc length: 3837
#
# Revision: 2
# Processed by: cddbd v1.5.1PL0 Copyright (c) Steve Scherf et al.
# Submitted via: EasyCDDAExtractor 7.0.5.3
# Normalized: r1:DSETVAR1
#
DISCID=c50efb10
DTITLE=Various Artist - Slow Blues Moods (Disk 1)
DYEAR=2003
DGENRE=Blues
TTITLE0=John Lee Hooker - Time Is Marching
TTITLE1=Lighting Hopkins - Devil Is Watching You
TTITLE2=Memphis Slim - Beer Drinking Woman
TTITLE3=Brownie McGhee and Sonny Terry - Blues For The Lowlands
TTITLE4=Big Bill Broonzy - Just A Dream, No 2
TTITLE5=Leadbelly - Where Did You Sleep Last Night
TTITLE6=Jimmy Reed - You Don't have To Go
TTITLE7=Earl Hooker - Blue Guitar
TTITLE8=Robert Johnson - Rambling On My Mind
TTITLE9=Sonny Boy Williamson - Fattenin' Frogs For Snakes
TTITLE10=James Cotton - Cotton  Crop Blues
TTITLE11=Champion Jack Dupree - Hard Feeling
TTITLE12=George Baze - Little Red Rooster
TTITLE13=Walter Horton - Easy
TTITLE14=D. A. Hunt - Grayhound Blues
TTITLE15=Jimi Hendrix - Bleeding Heart
EXTD=
EXTT0=
EXTT1=
EXTT2=
EXTT3=
EXTT4=
EXTT5=
EXTT6=
EXTT7=
EXTT8=
EXTT9=
EXTT10=
EXTT11=
EXTT12=
EXTT13=
EXTT14=
EXTT15=
PLAYORDER=
